PathFileType	4	(X/Y/Z)	 New Session 102.trc
DataRate	CameraRate	NumFrames	NumMarkers	Units	OrigDataRate	OrigDataStartFrame	OrigNumFrames
100	100	14	14	m	100	227	302
Frame#	Time	C7			T8			IJ			PX			AA			AC			AI			TS			SC			GH			LE			ME			US			RS			
		X1	Y1	Z1	X2	Y2	Z2	X3	Y3	Z3	X4	Y4	Z4	X5	Y5	Z5	X6	Y6	Z6	X7	Y7	Z7	X8	Y8	Z8	X9	Y9	Z9	X10	Y10	Z10	X11	Y11	Z11	X12	Y12	Z12	X13	Y13	Z13	X14	Y14	Z14	
227	2.2700	0.026396	0.104220	0.157350	0.032197	-0.110605	0.229843	0.001142	0.000387	-0.005154	0.002386	-0.142735	-0.071468	0.224716	0.008747	0.133783	0.170966	0.050110	0.065303	0.110619	0.027906	0.195481	0.114667	-0.090534	0.226006	0.026359	0.008444	-0.001304	0.233829	0.021769	0.093249	0.322182	-0.246475	0.002735	0.248554	-0.298480	0.038683	0.400539	-0.489513	-0.101653	0.327212	-0.497922	-0.136533	
228	2.2800	0.026413	0.104221	0.157305	0.032208	-0.110596	0.229823	0.001166	0.000369	-0.005167	0.002420	-0.142748	-0.071468	0.224731	0.008761	0.133771	0.170979	0.050121	0.065280	0.110633	0.027930	0.195459	0.114676	-0.090528	0.225999	0.026375	0.008443	-0.001307	0.233860	0.021783	0.093239	0.322143	-0.246495	0.002729	0.248538	-0.298482	0.038688	0.400533	-0.489559	-0.101608	0.327209	-0.497949	-0.136503	
229	2.2900	0.026418	0.104241	0.157269	0.032221	-0.110588	0.229805	0.001191	0.000349	-0.005180	0.002447	-0.142764	-0.071475	0.224742	0.008778	0.133760	0.170993	0.050139	0.065257	0.110639	0.027961	0.195437	0.114685	-0.090521	0.225992	0.026392	0.008458	-0.001314	0.233877	0.021801	0.093226	0.322097	-0.246518	0.002724	0.248523	-0.298486	0.038696	0.400521	-0.489599	-0.101567	0.327205	-0.497976	-0.136476	
230	2.3000	0.026415	0.104268	0.157242	0.032237	-0.110584	0.229789	0.001218	0.000327	-0.005195	0.002467	-0.142794	-0.071490	0.224750	0.008788	0.133747	0.171006	0.050147	0.065233	0.110639	0.027986	0.195416	0.114694	-0.090512	0.225985	0.026415	0.008468	-0.001329	0.233881	0.021807	0.093201	0.322046	-0.246548	0.002717	0.248511	-0.298498	0.038706	0.400505	-0.489641	-0.101529	0.327195	-0.498008	-0.136446	
231	2.3100	0.026414	0.104289	0.157220	0.032252	-0.110585	0.229770	0.001247	0.000303	-0.005211	0.002483	-0.142841	-0.071506	0.224760	0.008785	0.133731	0.171019	0.050134	0.065206	0.110639	0.027992	0.195394	0.114703	-0.090504	0.225978	0.026445	0.008455	-0.001351	0.233881	0.021793	0.093167	0.321999	-0.246587	0.002707	0.248501	-0.298520	0.038720	0.400489	-0.489688	-0.101492	0.327180	-0.498047	-0.136411	
232	2.3200	0.026425	0.104292	0.157193	0.032263	-0.110590	0.229744	0.001278	0.000277	-0.005228	0.002501	-0.142896	-0.071518	0.224772	0.008770	0.133711	0.171035	0.050104	0.065178	0.110647	0.027979	0.195369	0.114711	-0.090495	0.225971	0.026482	0.008416	-0.001379	0.233890	0.021764	0.093140	0.321967	-0.246631	0.002704	0.248492	-0.298551	0.038738	0.400469	-0.489742	-0.101449	0.327158	-0.498093	-0.136369	
233	2.3300	0.026451	0.104276	0.157150	0.032269	-0.110591	0.229715	0.001312	0.000249	-0.005246	0.002524	-0.142944	-0.071523	0.224786	0.008754	0.133692	0.171061	0.050074	0.065149	0.110664	0.027960	0.195344	0.114719	-0.090487	0.225964	0.026523	0.008370	-0.001408	0.233915	0.021735	0.093127	0.321957	-0.246675	0.002719	0.248486	-0.298584	0.038762	0.400440	-0.489796	-0.101396	0.327133	-0.498141	-0.136323	
234	2.3400	0.026485	0.104258	0.157096	0.032272	-0.110583	0.229683	0.001347	0.000219	-0.005265	0.002549	-0.142970	-0.071522	0.224801	0.008746	0.133676	0.171094	0.050061	0.065120	0.110689	0.027954	0.195321	0.114725	-0.090478	0.225957	0.026559	0.008338	-0.001435	0.233949	0.021714	0.093122	0.321959	-0.246713	0.002754	0.248484	-0.298611	0.038791	0.400398	-0.489843	-0.101335	0.327109	-0.498186	-0.136276	
235	2.3500	0.026511	0.104264	0.157049	0.032272	-0.110563	0.229648	0.001384	0.000189	-0.005286	0.002571	-0.142975	-0.071522	0.224814	0.008752	0.133661	0.171129	0.050070	0.065089	0.110713	0.027971	0.195300	0.114730	-0.090468	0.225950	0.026583	0.008333	-0.001459	0.233979	0.021706	0.093114	0.321956	-0.246747	0.002798	0.248487	-0.298626	0.038822	0.400351	-0.489883	-0.101269	0.327090	-0.498221	-0.136232	
236	2.3600	0.026524	0.104304	0.157017	0.032274	-0.110532	0.229610	0.001423	0.000158	-0.005307	0.002588	-0.142974	-0.071523	0.224825	0.008766	0.133647	0.171161	0.050088	0.065057	0.110728	0.028006	0.195281	0.114734	-0.090459	0.225942	0.026599	0.008342	-0.001482	0.234002	0.021709	0.093098	0.321936	-0.246784	0.002837	0.248497	-0.298630	0.038853	0.400310	-0.489919	-0.101206	0.327085	-0.498243	-0.136199	
237	2.3700	0.026529	0.104357	0.156990	0.032276	-0.110499	0.229570	0.001463	0.000127	-0.005328	0.002605	-0.142983	-0.071523	0.224834	0.008775	0.133631	0.171191	0.050097	0.065022	0.110733	0.028042	0.195258	0.114737	-0.090450	0.225933	0.026616	0.008340	-0.001506	0.234019	0.021717	0.093075	0.321899	-0.246827	0.002862	0.248511	-0.298631	0.038882	0.400285	-0.489960	-0.101150	0.327098	-0.498252	-0.136182	
238	2.3800	0.026540	0.104388	0.156948	0.032278	-0.110472	0.229531	0.001503	0.000097	-0.005351	0.002628	-0.143010	-0.071526	0.224844	0.008769	0.133610	0.171220	0.050089	0.064986	0.110733	0.028058	0.195230	0.114740	-0.090441	0.225924	0.026643	0.008312	-0.001531	0.234036	0.021716	0.093050	0.321854	-0.246877	0.002869	0.248525	-0.298636	0.038910	0.400276	-0.490011	-0.101101	0.327131	-0.498246	-0.136181	
239	2.3900	0.026565	0.104377	0.156884	0.032280	-0.110460	0.229498	0.001543	0.000067	-0.005373	0.002658	-0.143049	-0.071537	0.224857	0.008748	0.133586	0.171249	0.050061	0.064955	0.110734	0.028051	0.195198	0.114742	-0.090433	0.225914	0.026678	0.008264	-0.001549	0.234057	0.021697	0.093029	0.321816	-0.246930	0.002865	0.248538	-0.298652	0.038937	0.400278	-0.490072	-0.101054	0.327182	-0.498232	-0.136195	
240	2.4000	0.026600	0.104339	0.156809	0.032284	-0.110462	0.229471	0.001583	0.000039	-0.005395	0.002688	-0.143087	-0.071557	0.224871	0.008718	0.133568	0.171276	0.050018	0.064933	0.110739	0.028032	0.195167	0.114745	-0.090426	0.225903	0.026713	0.008216	-0.001559	0.234079	0.021664	0.093013	0.321792	-0.246979	0.002863	0.248550	-0.298680	0.038961	0.400284	-0.490135	-0.101007	0.327243	-0.498214	-0.136216	
